<?xml version="1.0" encoding="UTF-8" standalone="no"?><!DOCTYPE svg PUBLIC "-//W3C//DTD SVG 1.1//EN" "http://www.w3.org/Graphics/SVG/1.1/DTD/svg11.dtd"><svg width="100%" height="100%" viewBox="0 0 100 100" version="1.1" xmlns="http://www.w3.org/2000/svg" xmlns:xlink="http://www.w3.org/1999/xlink" xml:space="preserve" style="fill-rule:evenodd;clip-rule:evenodd;stroke-linecap:round;stroke-linejoin:round;stroke-miterlimit:10;"><g id="Icon54"><g id="bell"><path d="M50.977,12.56c2.713,0 5.326,0.408 7.805,1.132c0.055,-0.372 0.115,-0.744 0.115,-1.132c0,-4.376 -3.544,-7.92 -7.92,-7.92c-4.376,0 -7.92,3.544 -7.92,7.92c0,0.388 0.06,0.76 0.115,1.132c2.479,-0.724 5.093,-1.132 7.805,-1.132Z" style="fill:none;stroke:#5998be;stroke-width:4px;"/><path d="M86.086,75.585c-3.35,-7.377 -11.349,-19.466 -11.349,-35.305c0,-13.832 -6.898,-25.296 -19.518,-27.382c-15.217,-2.515 -28.499,10.501 -28.023,25.917c0.51,16.564 -7.809,29.168 -11.262,36.77c-1.762,3.877 1.089,8.253 5.346,8.253l59.46,0c4.257,0 7.108,-4.376 5.346,-8.253Z" style="fill:none;stroke:#5998be;stroke-width:4px;"/><path d="M24.577,75.917c0.202,-0.4 0.412,-0.812 0.626,-1.236c3.955,-7.785 9.935,-19.549 9.935,-34.402c0,-9.571 4.162,-19.799 15.839,-19.799" style="fill:none;stroke:#5998be;stroke-width:4px;"/><path d="M62.856,83.837c0,6.561 -5.318,11.879 -11.879,11.879c-6.561,0 -11.879,-5.318 -11.879,-11.879" style="fill:none;stroke:#5998be;stroke-width:4px;"/></g></g></svg>