<?xml version="1.0" encoding="UTF-8" standalone="no"?><!DOCTYPE svg PUBLIC "-//W3C//DTD SVG 1.1//EN" "http://www.w3.org/Graphics/SVG/1.1/DTD/svg11.dtd"><svg width="100%" height="100%" viewBox="0 0 100 100" version="1.1" xmlns="http://www.w3.org/2000/svg" xmlns:xlink="http://www.w3.org/1999/xlink" xml:space="preserve" style="fill-rule:evenodd;clip-rule:evenodd;stroke-linejoin:round;stroke-miterlimit:1.41421;"><g id="brook"><path d="M49.619,30.551c7.678,4.415 15.122,5.888 21.64,5.888c12.673,0 21.842,-5.565 22.415,-5.921l-2.022,-3.252c-0.195,0.119 -19.492,11.826 -40.124,-0.035c-22.584,-12.983 -43.678,-0.512 -44.565,0.022l1.985,3.276c0.196,-0.119 20.024,-11.847 40.671,0.022" style="fill:#5998be;fill-rule:nonzero;"/><path d="M50.75,41.656c-22.582,-12.985 -43.679,-0.514 -44.562,0.022l1.981,3.278c0.199,-0.119 20.086,-11.818 40.672,0.02c7.676,4.415 15.121,5.886 21.643,5.886c12.669,0 21.842,-5.565 22.412,-5.921l-2.019,-3.252c-0.192,0.119 -19.552,11.792 -40.127,-0.033" style="fill:#5998be;fill-rule:nonzero;"/><path d="M50.75,56.003c-22.582,-12.989 -43.679,-0.514 -44.562,0.022l1.985,3.276c0.195,-0.121 20.017,-11.848 40.668,0.022c7.676,4.415 15.121,5.886 21.643,5.886c12.669,0 21.842,-5.565 22.412,-5.921l-2.019,-3.252c-0.192,0.119 -19.552,11.792 -40.127,-0.033" style="fill:#5998be;fill-rule:nonzero;"/><path d="M50.75,69.987c-22.582,-12.984 -43.679,-0.514 -44.562,0.023l1.985,3.275c0.195,-0.12 20.017,-11.847 40.668,0.023c7.676,4.414 15.121,5.885 21.643,5.885c12.669,0 21.842,-5.564 22.412,-5.921l-2.019,-3.251c-0.192,0.118 -19.552,11.793 -40.127,-0.034" style="fill:#5998be;fill-rule:nonzero;"/></g></svg>