<?xml version="1.0" encoding="UTF-8" standalone="no"?><!DOCTYPE svg PUBLIC "-//W3C//DTD SVG 1.1//EN" "http://www.w3.org/Graphics/SVG/1.1/DTD/svg11.dtd"><svg width="100%" height="100%" viewBox="0 0 100 100" version="1.1" xmlns="http://www.w3.org/2000/svg" xmlns:xlink="http://www.w3.org/1999/xlink" xml:space="preserve" style="fill-rule:evenodd;clip-rule:evenodd;stroke-linejoin:round;stroke-miterlimit:1.41421;"><g id="PixelKit"><path id="Cup" d="M76.995,85.304l1.55,-3.097c0.62,-1.859 0.774,-3.723 0.774,-5.734l1.705,-1.242c2.634,-2.017 4.648,-5.111 6.663,-9.609c2.014,-4.955 3.099,-9.297 3.099,-12.862c0,-7.903 -2.325,-13.948 -6.973,-17.823l-1.395,-1.083l0.155,-5.737l-1.704,-12.09l0,-0.152c-0.155,-2.637 -3.719,-4.801 -10.381,-6.509c-6.198,-1.547 -13.79,-2.481 -22.932,-2.481c-8.832,0 -16.424,0.934 -22.776,2.481c-5.114,1.242 -8.367,2.944 -9.607,4.806c-0.309,0.311 -0.465,0.619 -0.465,0.928l-0.155,0.158l-0.464,0.617c-0.465,2.016 -0.93,5.889 -1.24,12.089c-0.31,3.873 -0.465,11.004 -0.465,21.541c0,7.592 0.93,14.414 2.789,20.457c1.085,3.414 2.063,7.779 4.493,12.706c1.503,3.048 0.319,1.516 1.395,3.103l1.859,3.097c0.93,1.242 3.254,2.481 6.973,3.567l0.155,0l7.902,1.395l9.141,0.155c10.382,0 17.509,-0.775 21.382,-2.328c3.874,-1.391 6.818,-3.564 8.522,-6.353Zm-11.155,-54.551c-2.944,0.62 -4.804,1.395 -5.734,2.326l-0.619,0.308c-1.395,1.394 -2.169,3.411 -2.169,6.2c0,2.634 1.084,4.803 3.254,6.509c2.324,1.706 4.957,2.172 7.901,1.706l0.775,-0.467c0.62,2.014 0.93,4.342 0.93,6.975c0,3.873 -0.31,7.129 -1.084,9.765l-3.565,-0.467c-2.014,0 -3.563,1.087 -4.957,3.253l0,-0.155c-0.93,1.708 -1.55,3.256 -1.55,5.117c0,1.553 0.775,3.097 2.169,4.958l0.155,0c0.929,1.087 2.325,2.014 3.874,2.792l0.154,0l1.705,0.617l0.155,0.158c2.634,0.464 5.113,0.309 7.283,-0.775l1.549,-0.93l-1.24,4.183l0,0.156c-1.549,2.633 -4.029,4.647 -7.282,5.731c-3.873,1.397 -10.692,2.172 -20.453,2.172l-8.986,-0.155l-7.438,-1.392c-2.633,-0.778 -4.338,-1.4 -5.113,-2.328l-1.859,-2.789l-0.155,-0.467l-0.155,0l0,-0.153l0,-0.155l-0.62,-1.086l0,-0.153l-0.309,-0.62c-2.015,-5.114 -3.41,-9.145 -4.339,-12.401l0,-0.152c-1.704,-5.737 -2.634,-12.398 -2.634,-19.529c0,-10.537 0.155,-17.668 0.465,-21.388l0,-0.153l0.619,-7.284c1.705,1.084 4.494,2.326 8.213,3.253c6.352,1.703 13.944,2.481 22.776,2.481c9.142,0 16.734,-0.778 22.932,-2.481c3.563,-0.927 6.198,-2.014 8.057,-3.097l0.929,7.903l0,3.256c-2.633,-1.242 -5.732,-2.017 -8.986,-2.017l-0.31,0l-4.338,0.775Zm0.464,3.101l4.184,-0.775c3.563,0 6.662,0.93 9.606,2.791l0,0.153l0.155,0.153c0.465,0.158 0.93,0.467 1.394,0.931l0,0.158c4.029,3.406 6.044,8.52 6.044,15.495c0,3.256 -0.93,7.281 -2.945,11.623l0,0.159c-1.549,3.717 -3.408,6.506 -5.577,8.056l-6.198,4.183l-4.803,0.467l-1.55,-0.622l-0.155,-0.153l-2.944,-1.861l0,-0.153c-0.929,-0.931 -1.394,-1.861 -1.394,-2.636c0,-1.239 0.31,-2.328 1.084,-3.409c0.62,-0.93 1.395,-1.553 2.324,-1.708l2.325,0.469l-1.085,1.859c-0.155,0.308 -0.465,0.616 -0.31,1.086c0.155,0.464 0.31,0.772 0.62,0.928c0.31,0.308 0.619,0.464 1.24,0.308l0.929,-0.464l2.324,-4.495c1.24,-3.255 1.705,-7.283 1.705,-12.087c0,-3.875 -0.465,-7.131 -1.859,-9.764c-1.395,-3.1 -3.254,-4.959 -5.578,-5.267c-0.62,-0.156 -0.93,0 -1.24,0.153c-0.31,0.155 -0.62,0.622 -0.62,0.93c-0.155,0.464 0,0.775 0.31,1.239l0.93,0.62c1.084,0.155 2.169,1.083 2.944,2.478l-0.31,0c-2.014,0.469 -3.874,0 -5.423,-1.081c-1.24,-1.083 -2.014,-2.481 -2.014,-4.031c0,-1.705 0.309,-2.789 1.084,-3.717l0.62,-0.466c0.62,-0.467 2.014,-1.087 4.183,-1.55Zm11.466,-17.513l0,0.311c-0.155,1.548 -2.944,2.942 -8.057,4.337c-6.042,1.55 -13.48,2.328 -22.157,2.328c-8.522,0 -15.804,-0.778 -22.002,-2.328c-5.268,-1.395 -8.057,-2.789 -8.212,-4.337l0,-0.311l0.155,0c0.93,-1.55 3.719,-2.789 8.057,-3.878c6.198,-1.703 13.48,-2.478 22.002,-2.478c8.677,0 16.115,0.775 22.157,2.478c4.804,1.245 7.437,2.484 8.057,3.878Z" style="fill:#5998be;stroke:#5998be;stroke-width:0.57px;"/></g></svg>