<?xml version="1.0" encoding="UTF-8" standalone="no"?><!DOCTYPE svg PUBLIC "-//W3C//DTD SVG 1.1//EN" "http://www.w3.org/Graphics/SVG/1.1/DTD/svg11.dtd"><svg width="100%" height="100%" viewBox="0 0 100 100" version="1.1" xmlns="http://www.w3.org/2000/svg" xmlns:xlink="http://www.w3.org/1999/xlink" xml:space="preserve" style="fill-rule:evenodd;clip-rule:evenodd;stroke-linejoin:round;stroke-miterlimit:1.41421;"><path id="animal-track" d="M48.657,91.002c-18.514,0 -18.514,-10.613 -18.514,-21.847c0,-11.77 14.113,-21.847 18.514,-21.847c4.401,0 18.513,10.077 18.513,21.847c0,11.234 0,21.847 -18.513,21.847Zm0,-40.351c-2.286,0 -15.212,8.368 -15.212,18.504c0,11.143 0,18.504 15.212,18.504c15.211,0 15.211,-7.361 15.211,-18.504c0,-10.136 -12.925,-18.504 -15.211,-18.504Zm31.922,21.555c-0.505,0 -1.013,-0.049 -1.507,-0.144c-6.82,-1.316 -10.515,-11.104 -8.412,-22.284c2.049,-10.885 7.817,-13.17 12.296,-13.17c0.878,0 1.799,0.091 2.736,0.272c4.542,0.877 11.79,4.327 9.294,17.59c-1.934,10.277 -7.993,17.736 -14.407,17.736Zm2.377,-32.256c-4.701,0 -7.747,3.518 -9.052,10.455c-1.699,9.025 0.951,17.441 5.785,18.373c4.85,0.95 10.367,-5.974 12.053,-14.935c1.494,-7.935 -0.749,-12.538 -6.668,-13.679c-0.733,-0.142 -1.447,-0.214 -2.118,-0.214Zm-64.315,22.779c-5.346,0 -10.775,-5.554 -13.203,-13.51c-1.294,-4.242 -1.243,-7.741 0.155,-10.402c1.207,-2.296 3.401,-3.956 6.52,-4.93c6.848,-2.148 11.638,0.927 14.055,8.848c1.296,4.245 1.528,8.572 0.653,12.181c-0.949,3.912 -3.081,6.569 -6.004,7.483c-0.7,0.219 -1.432,0.33 -2.176,0.33Zm-2.584,-26.157c-0.892,0 -1.891,0.171 -2.969,0.507c-2.288,0.717 -3.786,1.799 -4.58,3.309c-0.97,1.844 -0.941,4.485 0.085,7.846c1.941,6.359 6.26,11.153 10.048,11.153c0.413,0 0.817,-0.061 1.201,-0.18c1.772,-0.555 3.111,-2.362 3.772,-5.088c0.735,-3.029 0.521,-6.723 -0.601,-10.399c-2.183,-7.148 -5.776,-7.148 -6.956,-7.148Zm21.869,10.975c-6.084,0 -10.849,-7.553 -10.849,-17.192c0,-8.194 3.548,-12.177 10.849,-12.177c7.299,0 10.848,3.983 10.848,12.177c0,9.639 -4.765,17.192 -10.848,17.192Zm22.482,-3.288c-0.376,0 -0.75,-0.034 -1.123,-0.101c-5.988,-1.089 -9.121,-10.717 -7.134,-21.919c2.157,-12.161 8.195,-13.976 11.602,-13.976c0.612,0 1.24,0.057 1.868,0.171c3.211,0.584 10.406,3.477 7.885,17.687c-1.864,10.509 -7.373,18.138 -13.098,18.138Zm-22.482,-22.738c-4.53,0 -7.548,1.502 -7.548,8.834c0,7.506 3.457,13.849 7.548,13.849c4.09,0 7.546,-6.343 7.546,-13.849c0,-7.332 -3.017,-8.834 -7.546,-8.834Zm25.827,-9.915c-4.102,0 -7.068,3.985 -8.352,11.224c-1.745,9.834 0.954,17.399 4.467,18.037c0.179,0.033 0.359,0.049 0.54,0.049c3.424,0 8.163,-5.882 9.848,-15.386c1.425,-8.032 -0.429,-12.934 -5.218,-13.805c-0.437,-0.08 -0.868,-0.119 -1.285,-0.119Z" style="fill:#5a98be;stroke:#5a98be;stroke-width:1px;"/></svg>