<?xml version="1.0" encoding="UTF-8" standalone="no"?><!DOCTYPE svg PUBLIC "-//W3C//DTD SVG 1.1//EN" "http://www.w3.org/Graphics/SVG/1.1/DTD/svg11.dtd"><svg width="100%" height="100%" viewBox="0 0 100 100" version="1.1" xmlns="http://www.w3.org/2000/svg" xmlns:xlink="http://www.w3.org/1999/xlink" xml:space="preserve" xmlns:serif="http://www.serif.com/" style="fill-rule:evenodd;clip-rule:evenodd;stroke-linecap:round;stroke-linejoin:round;stroke-miterlimit:10;"><g id="Icon54---svg-24px" serif:id="Icon54 - svg 24px"><g id="Fan-24" serif:id="Fan 24"><path d="M65.386,49.928c0,8.528 -6.907,15.435 -15.435,15.435c-8.527,0 -15.434,-6.907 -15.434,-15.435c0,-8.527 6.907,-15.434 15.434,-15.434c8.528,0 15.435,6.907 15.435,15.434Z" style="fill:none;stroke:#5998be;stroke-width:4px;"/><path d="M38.376,38.352c0,0 -3.859,-14.948 -3.859,-23.151c0,-8.196 8.196,-11.576 19.293,-11.576c11.097,0 27.01,6.514 27.01,11.576c0,5.062 -23.152,9.407 -23.152,19.293" style="fill:none;stroke:#5998be;stroke-width:4px;"/><path d="M45.715,65.741c0,0 -11.02,10.819 -18.12,14.917c-7.1,4.098 -14.123,-1.312 -19.671,-10.92c-5.549,-9.608 -7.864,-26.647 -3.481,-29.178c4.384,-2.532 19.718,15.349 28.284,10.402" style="fill:none;stroke:#5998be;stroke-width:4px;"/><path d="M65.764,45.691c0,0 14.878,4.137 21.978,8.235c7.1,4.097 5.927,12.887 0.378,22.495c-5.548,9.608 -19.146,20.134 -23.529,17.603c-4.384,-2.531 3.434,-24.749 -5.132,-29.696" style="fill:none;stroke:#5998be;stroke-width:4px;"/></g></g></svg>