<?xml version="1.0" encoding="UTF-8" standalone="no"?><!DOCTYPE svg PUBLIC "-//W3C//DTD SVG 1.1//EN" "http://www.w3.org/Graphics/SVG/1.1/DTD/svg11.dtd"><svg width="100%" height="100%" viewBox="0 0 100 100" version="1.1" xmlns="http://www.w3.org/2000/svg" xmlns:xlink="http://www.w3.org/1999/xlink" xml:space="preserve" style="fill-rule:evenodd;clip-rule:evenodd;stroke-linejoin:round;stroke-miterlimit:1.41421;"><g id="Retinaicon"><path d="M44.624,52.936c3.509,0 4.05,4.078 4.622,8.396c0.426,3.215 0.908,6.858 2.448,9.165c2.037,3.044 5.507,3.388 9.528,3.788c2.14,0.214 4.352,0.434 6.409,1.118c1.282,0.426 2.2,1.323 2.659,2.593c1.315,3.641 -1.718,10.136 -3.838,13.991c3.729,-0.388 10.185,-1.88 15.332,-7.33c6.038,-6.392 8.686,-16.441 7.869,-29.869c-0.878,-14.417 -2.321,-18.358 -2.975,-19.424c-0.506,0.586 -1.485,2.224 -2.953,6.773c-0.864,2.675 -7.185,15.033 -13.798,15.035c-6.255,0 -7.813,-10.094 -8.324,-13.412c-2.979,-19.306 -7.909,-30.382 -10.114,-34.604c-3.62,4.107 -12.617,15.008 -18.335,29.255c-2.807,6.99 -3.73,7.973 -5.257,7.973l-0.774,0l-0.674,-0.504c-0.924,-1.004 -0.816,-2.699 -0.372,-7.655c0.139,-1.542 0.34,-3.751 0.363,-5.3c-3.281,2.711 -10.703,11.141 -14.462,21.333c-2.922,7.915 -2.764,14.662 0.467,20.028c4.624,7.681 8.552,12.055 11.486,14.541c-3.821,-6.437 -7.79,-16.805 -1.318,-25.838l1.862,-2.596l1.193,2.963c1.29,3.211 4.078,8.602 6.316,10.087c1.254,-1.081 3.469,-6.173 4.825,-9.289c3.21,-7.371 5.015,-11.218 7.815,-11.218m19.484,42.673c-0.577,0 -0.897,-0.024 -0.897,-0.024l-2.893,-0.216l1.53,-2.452c2.662,-4.248 6.018,-11.32 5.144,-13.739c-0.094,-0.259 -0.211,-0.376 -0.468,-0.461c-1.687,-0.56 -3.612,-0.749 -5.65,-0.954c-4.285,-0.428 -9.141,-0.91 -12.096,-5.328c-1.993,-2.983 -2.533,-7.055 -3.008,-10.646c-0.24,-1.81 -0.593,-4.471 -1.108,-5.243c-1.194,1.096 -3.328,5.996 -4.636,8.999c-3.199,7.35 -5.152,11.508 -8.042,11.508c-0.431,0 -0.849,-0.101 -1.242,-0.296c-2.784,-1.385 -5.34,-5.766 -6.877,-8.878c-4.747,11.311 6.971,24.513 7.1,24.659l2.594,2.765l-3.905,0c-0.868,0 -8.806,-0.403 -20.215,-19.352c-6.212,-10.317 -1.828,-22.425 2.945,-30.826c4.36,-7.672 11.926,-16.556 15.146,-16.556c0.574,0 1.105,0.231 1.492,0.619c1.119,1.114 1.082,3.323 0.609,8.714c0.087,-0.213 0.176,-0.428 0.266,-0.654c7.528,-18.758 20.14,-31.729 20.672,-32.273l1.513,-1.539l1.2,1.791c0.315,0.472 7.747,11.813 11.785,38.003c1.01,6.541 2.825,10.447 4.86,10.447c3.735,0 9.468,-9.543 10.451,-12.585c1.841,-5.695 3.625,-9.471 6.383,-9.471c3.083,0 5.227,3.839 6.391,22.955c0.88,14.428 -2.087,25.353 -8.813,32.476c-7.498,7.94 -17.379,8.557 -20.231,8.557" style="fill:#5998be;fill-rule:nonzero;stroke:#5998be;stroke-width:0.31px;"/></g></svg>