<?xml version="1.0" encoding="UTF-8" standalone="no"?><!DOCTYPE svg PUBLIC "-//W3C//DTD SVG 1.1//EN" "http://www.w3.org/Graphics/SVG/1.1/DTD/svg11.dtd"><svg width="100%" height="100%" viewBox="0 0 100 100" version="1.1" xmlns="http://www.w3.org/2000/svg" xmlns:xlink="http://www.w3.org/1999/xlink" xml:space="preserve" style="fill-rule:evenodd;clip-rule:evenodd;stroke-linejoin:round;stroke-miterlimit:1.41421;"><path d="M25.981,54.517l-0.008,0.011l-0.008,0.012l-0.009,0.013l-0.008,0.013l-0.008,0.015l-0.009,0.015l-0.008,0.016l-0.008,0.017l-0.008,0.018l-0.009,0.018l-0.008,0.019l-0.007,0.02l-0.008,0.021l-0.007,0.022l-0.007,0.022l-0.007,0.023l-0.007,0.023l-0.006,0.024l-0.006,0.024l-0.005,0.025l-0.005,0.026l-0.005,0.026l-0.004,0.026l-0.003,0.027l-0.004,0.027l-0.002,0.027l-0.003,0.027l0,0.007l12.022,0l-16.52,21.599l-0.02,0.027l-0.012,0.018l-0.013,0.019l-0.013,0.02l-0.012,0.02l-0.013,0.022l-0.012,0.023l-0.012,0.023l-0.012,0.024l-0.012,0.026l-0.012,0.026l-0.011,0.027l-0.011,0.028l-0.01,0.028l-0.01,0.029l-0.01,0.031l-0.009,0.03l-0.009,0.032l-0.008,0.032l-0.008,0.032l-0.007,0.034l-0.006,0.033l-0.006,0.035l-0.006,0.034l-0.005,0.035l-0.004,0.035l-0.004,0.036l-0.003,0.036l-0.002,0.036l-0.001,0.036l-0.001,0.036l-0.001,0.036l0.001,0.037l0.001,0.036l0.001,0.036l0.002,0.036l28.559,0l0,19.951l-4,0l0,-15.951l-26.889,0l-0.656,-0.88l-0.068,-0.096l-0.065,-0.098l-0.063,-0.098l-0.061,-0.099l-0.057,-0.101l-0.056,-0.101l-0.052,-0.101l-0.051,-0.103l-0.048,-0.103l-0.045,-0.104l-0.044,-0.104l-0.04,-0.105l-0.039,-0.106l-0.036,-0.106l-0.034,-0.106l-0.032,-0.107l-0.03,-0.107l-0.028,-0.107l-0.025,-0.108l-0.023,-0.107l-0.022,-0.109l-0.019,-0.108l-0.017,-0.108l-0.015,-0.109l-0.013,-0.109l-0.011,-0.109l-0.009,-0.109l-0.007,-0.109l-0.005,-0.109l-0.003,-0.109l-0.001,-0.11l0.001,-0.109l0.003,-0.109l0.005,-0.109l0.007,-0.109l0.009,-0.109l0.011,-0.109l0.013,-0.109l0.015,-0.109l0.017,-0.108l0.019,-0.108l0.022,-0.109l0.023,-0.107l0.025,-0.108l0.028,-0.107l0.03,-0.107l0.032,-0.107l0.034,-0.106l0.036,-0.106l0.039,-0.106l0.04,-0.105l0.044,-0.104l0.045,-0.104l0.048,-0.103l0.051,-0.103l0.052,-0.101l0.056,-0.101l0.057,-0.101l0.061,-0.099l0.063,-0.098l0.065,-0.098l0.068,-0.096l0.064,-0.085l11.617,-15.189l-6.336,0l-0.651,-0.874l-0.063,-0.09l-0.061,-0.09l-0.059,-0.092l-0.056,-0.092l-0.053,-0.093l-0.052,-0.094l-0.049,-0.095l-0.046,-0.095l-0.045,-0.096l-0.042,-0.096l-0.04,-0.097l-0.038,-0.097l-0.035,-0.098l-0.034,-0.098l-0.032,-0.098l-0.029,-0.099l-0.027,-0.099l-0.026,-0.099l-0.023,-0.099l-0.022,-0.1l-0.02,-0.1l-0.017,-0.1l-0.016,-0.1l-0.014,-0.1l-0.012,-0.101l-0.01,-0.1l-0.008,-0.101l-0.007,-0.1l-0.004,-0.101l-0.003,-0.101l-0.001,-0.1l0.001,-0.101l0.003,-0.101l0.004,-0.101l0.007,-0.1l0.008,-0.101l0.01,-0.1l0.012,-0.101l0.014,-0.1l0.016,-0.1l0.018,-0.1l0.019,-0.1l0.022,-0.1l0.023,-0.099l0.026,-0.099l0.027,-0.099l0.03,-0.099l0.031,-0.098l0.034,-0.098l0.035,-0.098l0.038,-0.097l0.04,-0.097l0.043,-0.096l0.044,-0.096l0.047,-0.095l0.049,-0.095l0.051,-0.094l0.054,-0.093l0.056,-0.092l0.059,-0.092l0.061,-0.09l0.063,-0.09l0.067,-0.09l12.328,-15.633l-4.698,0l-0.644,-0.865l-0.058,-0.081l-0.054,-0.081l-0.053,-0.083l-0.051,-0.083l-0.048,-0.083l-0.046,-0.085l-0.044,-0.084l-0.042,-0.086l-0.04,-0.085l-0.038,-0.087l-0.035,-0.086l-0.034,-0.087l-0.032,-0.087l-0.03,-0.088l-0.028,-0.088l-0.027,-0.088l-0.024,-0.088l-0.023,-0.088l-0.021,-0.089l-0.019,-0.088l-0.018,-0.089l-0.015,-0.089l-0.014,-0.089l-0.013,-0.089l-0.01,-0.09l-0.009,-0.089l-0.008,-0.089l-0.006,-0.09l-0.004,-0.089l-0.002,-0.09l-0.001,-0.089l0.001,-0.09l0.002,-0.089l0.004,-0.089l0.006,-0.09l0.008,-0.089l0.009,-0.09l0.01,-0.089l0.013,-0.089l0.014,-0.089l0.015,-0.089l0.018,-0.089l0.019,-0.089l0.021,-0.088l0.023,-0.089l0.024,-0.088l0.027,-0.088l0.028,-0.088l0.03,-0.087l0.032,-0.087l0.034,-0.087l0.036,-0.087l0.038,-0.086l0.04,-0.086l0.042,-0.085l0.044,-0.085l0.046,-0.084l0.049,-0.084l0.05,-0.083l0.053,-0.082l0.055,-0.082l0.057,-0.08l0.016,-0.022l17.43,-25.829l0.091,-0.115l0.063,-0.077l0.066,-0.076l0.067,-0.073l0.07,-0.073l0.071,-0.07l0.073,-0.068l0.075,-0.067l0.077,-0.065l0.079,-0.062l0.08,-0.06l0.082,-0.059l0.084,-0.056l0.086,-0.053l0.087,-0.052l0.089,-0.048l0.09,-0.047l0.092,-0.043l0.093,-0.041l0.095,-0.038l0.096,-0.036l0.097,-0.032l0.097,-0.03l0.099,-0.027l0.1,-0.023l0.101,-0.021l0.101,-0.017l0.102,-0.015l0.102,-0.011l0.102,-0.008l0.103,-0.005l0.103,-0.001l0.103,0.001l0.103,0.005l0.102,0.008l0.102,0.011l0.102,0.015l0.101,0.017l0.101,0.021l0.1,0.023l0.099,0.027l0.098,0.03l0.097,0.032l0.095,0.036l0.095,0.038l0.093,0.041l0.092,0.044l0.09,0.046l0.089,0.049l0.088,0.051l0.085,0.054l0.084,0.056l0.082,0.058l0.081,0.061l0.079,0.062l0.076,0.065l0.076,0.067l0.073,0.068l0.071,0.071l0.069,0.072l0.068,0.074l0.065,0.075l0.064,0.077l0.089,0.115l17.431,25.828l0.016,0.022l0.057,0.08l0.055,0.082l0.053,0.082l0.051,0.083l0.048,0.084l0.046,0.084l0.045,0.085l0.042,0.085l0.039,0.086l0.038,0.086l0.036,0.087l0.034,0.087l0.032,0.087l0.03,0.088l0.029,0.087l0.026,0.088l0.025,0.089l0.022,0.088l0.021,0.089l0.02,0.088l0.017,0.089l0.016,0.089l0.014,0.089l0.012,0.089l0.011,0.09l0.009,0.089l0.007,0.089l0.006,0.09l0.004,0.089l0.003,0.09l0,0.089l0,0.09l-0.003,0.089l-0.004,0.089l-0.006,0.09l-0.007,0.089l-0.009,0.089l-0.011,0.09l-0.012,0.089l-0.014,0.089l-0.016,0.089l-0.017,0.089l-0.02,0.089l-0.02,0.088l-0.023,0.088l-0.025,0.089l-0.026,0.088l-0.028,0.087l-0.03,0.088l-0.032,0.087l-0.034,0.087l-0.036,0.087l-0.038,0.086l-0.039,0.085l-0.042,0.086l-0.044,0.085l-0.046,0.084l-0.048,0.083l-0.051,0.083l-0.052,0.083l-0.055,0.081l-0.057,0.081l-0.645,0.866l-4.7,0l12.326,15.632l0.067,0.09l0.064,0.09l0.061,0.09l0.058,0.092l0.056,0.092l0.054,0.093l0.052,0.094l0.049,0.095l0.046,0.095l0.045,0.096l0.042,0.096l0.04,0.097l0.038,0.097l0.036,0.098l0.033,0.098l0.032,0.098l0.029,0.099l0.028,0.099l0.025,0.099l0.024,0.1l0.021,0.099l0.02,0.1l0.018,0.1l0.015,0.1l0.014,0.101l0.012,0.1l0.01,0.1l0.008,0.101l0.007,0.101l0.004,0.101l0.003,0.1l0.001,0.101l-0.001,0.101l-0.003,0.101l-0.004,0.1l-0.007,0.101l-0.008,0.101l-0.01,0.1l-0.012,0.101l-0.014,0.1l-0.016,0.1l-0.018,0.1l-0.019,0.1l-0.022,0.1l-0.023,0.099l-0.026,0.099l-0.028,0.099l-0.029,0.099l-0.032,0.098l-0.033,0.098l-0.036,0.098l-0.038,0.097l-0.04,0.097l-0.042,0.097l-0.045,0.095l-0.047,0.095l-0.049,0.095l-0.051,0.094l-0.054,0.093l-0.056,0.093l-0.059,0.091l-0.061,0.091l-0.063,0.089l-0.652,0.873l-6.331,0l11.617,15.189l0.064,0.086l0.068,0.097l0.066,0.097l0.063,0.098l0.06,0.1l0.058,0.1l0.055,0.101l0.052,0.102l0.051,0.102l0.048,0.103l0.045,0.104l0.043,0.104l0.041,0.106l0.039,0.105l0.036,0.106l0.034,0.106l0.032,0.107l0.029,0.107l0.028,0.107l0.025,0.107l0.023,0.108l0.022,0.108l0.019,0.109l0.017,0.108l0.015,0.109l0.013,0.108l0.011,0.109l0.009,0.109l0.007,0.109l0.005,0.11l0.003,0.109l0.001,0.109l-0.001,0.109l-0.003,0.109l-0.006,0.109l-0.006,0.11l-0.01,0.109l-0.011,0.108l-0.013,0.109l-0.015,0.109l-0.017,0.108l-0.019,0.109l-0.021,0.108l-0.023,0.108l-0.026,0.107l-0.027,0.107l-0.03,0.107l-0.032,0.107l-0.034,0.106l-0.037,0.106l-0.038,0.106l-0.041,0.105l-0.043,0.104l-0.046,0.104l-0.048,0.103l-0.05,0.103l-0.053,0.101l-0.055,0.101l-0.058,0.101l-0.06,0.099l-0.063,0.098l-0.066,0.098l-0.068,0.096l-0.656,0.88l-25.975,0l0,-4l23.645,0l0,0l0.002,-0.036l0.002,-0.036l0.001,-0.037l0,-0.036l0,-0.036l-0.001,-0.037l-0.002,-0.036l-0.002,-0.036l-0.003,-0.036l-0.003,-0.035l-0.005,-0.036l-0.004,-0.035l-0.006,-0.034l-0.006,-0.034l-0.007,-0.034l-0.007,-0.033l-0.007,-0.033l-0.009,-0.032l-0.008,-0.032l-0.01,-0.03l-0.009,-0.031l-0.01,-0.029l-0.011,-0.029l-0.011,-0.027l-0.011,-0.027l-0.011,-0.027l-0.012,-0.025l-0.012,-0.024l-0.012,-0.024l-0.012,-0.022l-0.013,-0.022l-0.012,-0.021l-0.013,-0.02l-0.013,-0.018l-0.013,-0.018l-0.019,-0.027l-16.519,-21.598l12.02,0l0,-0.007l-0.002,-0.027l-0.003,-0.028l-0.003,-0.027l-0.004,-0.026l-0.004,-0.027l-0.005,-0.025l-0.005,-0.026l-0.005,-0.025l-0.006,-0.024l-0.006,-0.024l-0.006,-0.024l-0.007,-0.022l-0.007,-0.022l-0.008,-0.022l-0.007,-0.021l-0.008,-0.02l-0.008,-0.019l-0.008,-0.018l-0.008,-0.018l-0.009,-0.017l-0.008,-0.016l-0.008,-0.015l-0.009,-0.015l-0.008,-0.013l-0.008,-0.013l-0.008,-0.012l-0.008,-0.011l-0.006,-0.009l-17.4,-22.066l10.288,0l-16.958,-25.127l-16.955,25.126l10.286,0l-17.401,22.067l-0.006,0.009Z" style="fill:#5998be;"/></svg>