<?xml version="1.0" encoding="UTF-8" standalone="no"?><!DOCTYPE svg PUBLIC "-//W3C//DTD SVG 1.1//EN" "http://www.w3.org/Graphics/SVG/1.1/DTD/svg11.dtd"><svg width="100%" height="100%" viewBox="0 0 100 100" version="1.1" xmlns="http://www.w3.org/2000/svg" xmlns:xlink="http://www.w3.org/1999/xlink" xml:space="preserve" style="fill-rule:evenodd;clip-rule:evenodd;stroke-linejoin:round;stroke-miterlimit:1.41421;"><g id="Retinaicon"><g id="leaves"><path d="M4.922,42.286c0.434,8.476 2.661,29.821 13.984,41.277c4.994,5.053 11.254,7.615 18.607,7.616c0.606,-0.005 1.293,-0.018 1.963,-0.058c5.014,-0.292 9.757,-2.634 13.015,-6.421c3.124,-3.631 4.607,-8.2 4.176,-12.87c-0.041,-0.447 -0.095,-0.904 -0.165,-1.366c-1.701,-11.387 -11.54,-20.214 -23.398,-20.99c-9.226,-0.604 -21.002,-2.363 -28.182,-7.188m32.596,52.229l-0.006,0c-8.279,-0.002 -15.34,-2.899 -20.985,-8.614c-15.249,-15.435 -15.06,-45.963 -15.045,-47.254l0.05,-4.074l2.822,2.938c5.71,5.944 18.905,7.977 28.968,8.634c13.412,0.877 24.548,10.897 26.479,23.826c0.079,0.527 0.142,1.045 0.189,1.554c0.512,5.578 -1.253,11.029 -4.969,15.35c-3.845,4.469 -9.441,7.231 -15.351,7.576c-0.732,0.042 -1.446,0.064 -2.152,0.064" style="fill:#5998be;fill-rule:nonzero;stroke:#5998be;stroke-width:0.44px;"/><path d="M43.583,48.753c9.748,4.484 16.202,14.002 16.506,24.432c0.032,1.019 0.884,1.925 2.535,2.692c1.282,0.595 2.69,0.897 4.181,0.897l0.002,0c0.965,0 1.946,-0.128 2.912,-0.383c10.405,-2.742 33.461,-14.146 22.874,-60.706l-1.512,-4.516c-4.683,3.834 -17.071,13.238 -27.915,15.086c-5.889,1.002 -10.979,3.494 -14.718,7.205c-3.119,3.092 -6.714,7.628 -6.306,11.79l1.441,3.503Zm23.224,31.357l-0.002,0c-1.981,0 -3.861,-0.407 -5.587,-1.208c-3.601,-1.674 -4.414,-3.979 -4.463,-5.62c-0.273,-9.361 -6.209,-17.898 -15.121,-21.747l-0.622,-0.269l-2.153,-5.378c-0.584,-4.473 1.853,-9.452 7.239,-14.797c4.231,-4.197 9.938,-7.006 16.508,-8.125c12.473,-2.125 28.018,-15.768 28.173,-15.905l1.889,-1.671l3.134,9.398c4.906,21.548 3.404,38.346 -4.425,50.082c-6.524,9.778 -15.836,13.437 -20.808,14.746c-1.244,0.328 -2.51,0.494 -3.762,0.494" style="fill:#5998be;fill-rule:nonzero;stroke:#5998be;stroke-width:0.44px;"/><path d="M49.848,90.387c-0.152,0 -0.305,-0.02 -0.457,-0.063c-23.959,-6.816 -35.626,-34.809 -36.11,-35.997c-0.348,-0.854 0.06,-1.826 0.914,-2.174c0.851,-0.347 1.825,0.06 2.173,0.912c0.114,0.277 11.556,27.684 33.935,34.05c0.886,0.252 1.4,1.174 1.148,2.06c-0.209,0.734 -0.876,1.212 -1.603,1.212" style="fill:#5998be;fill-rule:nonzero;stroke:#5998be;stroke-width:0.44px;"/><path d="M56.517,63.703c-0.851,0 -1.578,-0.649 -1.66,-1.512c-0.085,-0.918 0.589,-1.73 1.506,-1.817c18.659,-1.749 28.48,-33.523 28.578,-33.843c0.267,-0.882 1.198,-1.381 2.078,-1.114c0.883,0.267 1.381,1.196 1.115,2.078c-0.421,1.397 -10.571,34.242 -31.461,36.2c-0.053,0.007 -0.105,0.008 -0.156,0.008" style="fill:#5998be;fill-rule:nonzero;stroke:#5998be;stroke-width:0.44px;"/></g></g></svg>