<?xml version="1.0" encoding="UTF-8" standalone="no"?><!DOCTYPE svg PUBLIC "-//W3C//DTD SVG 1.1//EN" "http://www.w3.org/Graphics/SVG/1.1/DTD/svg11.dtd"><svg width="100%" height="100%" viewBox="0 0 100 100" version="1.1" xmlns="http://www.w3.org/2000/svg" xmlns:xlink="http://www.w3.org/1999/xlink" xml:space="preserve" style="fill-rule:evenodd;clip-rule:evenodd;stroke-linejoin:round;stroke-miterlimit:1.41421;"><g id="PixelKit"><path id="Newspaper" d="M85.561,6.637c0.259,0.001 0.514,0.127 0.768,0.254l0.385,0.384l0.384,0.643l0,0.896c-0.384,0.767 -0.64,2.048 -1.153,3.839l-0.513,2.434l7.178,-0.386l5.383,0.641c0.385,0 0.641,0.126 0.898,0.386l0.384,0.895l-3.845,17.161c-2.564,12.29 -3.845,21.899 -3.845,28.942l0,8.322c0,3.713 0.384,6.528 0.897,8.324l0,0.638l-0.385,0.641l-0.768,0.257l-6.153,0l-6.409,0.767c-4.871,0.641 -8.716,1.536 -11.665,2.563c-7.305,2.558 -13.073,6.016 -17.175,10.37l-0.769,0.767l-0.769,0.641l-0.897,0l-4.23,-3.456c-2.051,-1.665 -3.718,-2.944 -4.999,-3.585c-4.358,-2.179 -9.486,-3.203 -15.253,-3.203l-14.741,1.284c-0.256,0 -0.641,-0.129 -0.897,-0.386l-0.385,-0.898l-0.256,-1.024c0.641,-9.218 0.897,-15.62 0.897,-18.824c0,-11.139 -0.897,-21.129 -2.819,-29.839l-3.974,-18.949c-0.128,-0.258 -0.128,-0.641 0,-0.898l0.769,-0.639l5.896,-0.898l16.022,0.258c1.795,0.254 4.871,1.024 9.229,2.305c2.307,0.639 6.922,2.944 14.1,6.66c2.435,-3.461 8.203,-7.046 17.175,-10.885c8.201,-3.586 14.608,-5.634 19.099,-6.402l2.436,0Zm10.381,11.008l-3.332,-0.381c-9.74,0 -20.122,1.665 -31.147,4.738l0.128,0l-12.305,4.227l0.257,1.024l-1.539,55.318c0,3.458 0.257,6.149 0.641,8.453l0,1.152c4.486,-4.225 10.254,-7.683 17.561,-10.375c2.947,-1.15 7.819,-2.048 14.484,-2.686l8.972,-0.767c-0.384,-1.794 -0.641,-4.226 -0.641,-7.3l0,-8.322c0,-7.043 1.282,-16.906 3.974,-29.456l3.588,-15.494l-0.512,-0.131l-0.129,0Zm-73.061,65.566c6.155,0.001 11.665,1.154 16.536,3.585c2.819,1.281 4.998,2.82 6.665,4.485c-0.385,-2.306 -0.641,-5.252 -0.641,-8.71l1.538,-55.063l-0.385,-0.895l-0.256,-0.127c-7.306,-3.715 -12.177,-6.023 -14.356,-6.661c-4.23,-1.279 -7.05,-2.049 -8.844,-2.306l-15.51,-0.255l-4.229,0.639l3.973,17.672c1.923,8.839 2.82,18.824 2.82,30.349l-0.769,18.569l13.33,-1.282l0.128,0Zm-4.742,-29.708c-0.257,0.255 -0.257,0.512 -0.128,0.896c0.128,0.386 0.256,0.643 0.512,0.771l1.026,0.127l5.896,-0.512c2.051,0 4.486,0.638 7.178,2.048c1.922,1.027 3.333,2.048 4.23,2.944l0.897,0.386l0.897,-0.386l0.385,-0.896l-0.385,-0.895c-1.025,-1.153 -2.82,-2.303 -4.871,-3.33c-3.076,-1.665 -5.895,-2.432 -8.331,-2.432l-6.537,0.639c-0.385,0 -0.513,0.257 -0.769,0.64Zm38.325,4.357c-0.128,0.383 -0.128,0.766 0.128,1.021l0.769,0.641l0.897,-0.129c2.564,-1.407 4.487,-2.048 6.025,-1.791l0.897,-0.257l0.513,-0.769l-0.128,-0.893c-0.257,-0.386 -0.641,-0.513 -0.898,-0.641c-1.794,-0.386 -4.229,0.255 -7.562,2.177c-0.257,0.126 -0.513,0.383 -0.641,0.641Zm-16.151,-9.48l-0.64,0l-6.665,-6.529l0,0.129c-2.949,-1.793 -6.922,-2.563 -12.049,-2.563l-4.743,0.258l-0.641,-0.641c-0.256,-0.386 -0.256,-0.643 -0.128,-1.024l0.641,-0.767l4.871,-0.386c5.512,0 9.998,0.898 13.331,2.818c1.794,1.024 4.101,3.201 7.049,6.528l0.256,0.9l-0.384,0.894l-0.898,0.383Zm37.813,-9.346c0.387,0.001 0.642,0.129 0.897,0.383l0.385,0.896l-0.385,0.895l-0.897,0.389l-8.075,0c-1.923,0 -4.102,0.383 -6.666,1.534l-3.973,1.922l-1.025,0l-0.641,-0.767c-0.128,-0.389 -0.128,-0.77 0.128,-1.027l0.641,-0.641l3.845,-1.919c2.946,-1.152 5.509,-1.665 7.819,-1.665l7.947,0Zm-56.783,-14.086l-6.537,0.383c-0.256,0 -0.512,0.255 -0.769,0.512c-0.256,0.386 -0.256,0.643 -0.256,1.025c0.128,0.257 0.256,0.64 0.513,0.767l1.025,0.257l6.024,-0.384c4.102,0 7.819,0.641 10.896,2.177c1.922,0.767 4.486,2.049 7.819,3.968l0.896,0.258l0.898,-0.641l0.128,-1.024l-0.641,-0.639c-3.332,-2.177 -6.153,-3.458 -8.075,-4.354c-3.333,-1.536 -7.434,-2.305 -11.921,-2.305Zm62.936,3.201l-0.513,0c-2.564,-0.383 -6.922,0 -12.69,1.281c-6.024,1.279 -10.126,2.561 -12.433,3.966l-0.897,0.131l-0.769,-0.514c-0.256,-0.384 -0.256,-0.639 -0.129,-1.022c0,-0.257 0.129,-0.639 0.513,-0.769c2.436,-1.537 6.794,-2.947 13.331,-4.354c6.152,-1.282 10.638,-1.792 13.459,-1.282l0.64,0c0.385,0.131 0.641,0.257 0.897,0.643l0.129,0.896l-0.513,0.767l-1.025,0.257Zm-0.128,-18.952l-0.641,0c-4.362,0.771 -10.514,2.69 -18.458,6.145c-6.153,2.561 -10.639,5.121 -13.587,7.429l9.357,-3.204c7.562,-2.177 14.869,-3.584 21.918,-4.354c0.129,-0.766 0.257,-1.791 0.77,-3.07l0,-0.131l0.641,-2.815Z" style="fill:#5998be;stroke:#5998be;stroke-width:1.06px;"/></g></svg>