<?xml version="1.0" encoding="UTF-8" standalone="no"?><!DOCTYPE svg PUBLIC "-//W3C//DTD SVG 1.1//EN" "http://www.w3.org/Graphics/SVG/1.1/DTD/svg11.dtd"><svg width="100%" height="100%" viewBox="0 0 100 100" version="1.1" xmlns="http://www.w3.org/2000/svg" xmlns:xlink="http://www.w3.org/1999/xlink" xml:space="preserve" style="fill-rule:evenodd;clip-rule:evenodd;stroke-linejoin:round;stroke-miterlimit:1.41421;"><g id="moon"><path d="M47.792,92.353c-12.642,0 -24.503,-5.45 -32.737,-14.667c3.041,0.604 6.142,0.909 9.293,0.909c26.245,0 47.597,-21.354 47.597,-47.599c0,-7.799 -1.923,-15.432 -5.525,-22.24c15.066,7.113 25.25,22.546 25.25,39.719c0,24.193 -19.684,43.878 -43.878,43.878m10.035,-90.125c6.648,7.728 10.674,17.775 10.674,28.768c0,24.386 -19.767,44.155 -44.153,44.155c-6.418,0 -12.505,-1.379 -18.006,-3.842c8.057,14.599 23.595,24.488 41.45,24.488c26.135,0 47.321,-21.188 47.321,-47.322c0,-22.691 -15.974,-41.641 -37.286,-46.247" style="fill:#5998be;fill-rule:nonzero;stroke:#5998be;stroke-width:0.63px;"/><path d="M16.631,14.89l-4.197,0.006l-0.006,-4.447l-4.452,0.007l-0.006,-4.198l4.452,-0.006l-0.007,-4.451l4.197,-0.006l0.007,4.451l4.447,-0.007l0.006,4.198l-4.447,0.006l0.006,4.447Z" style="fill:#5998be;fill-rule:nonzero;"/><path d="M6.964,36.165l-0.004,-2.877l2.098,-0.003l0.005,2.877l2.877,-0.004l0.003,2.099l-2.877,0.004l0.004,2.873l-2.099,0.003l-0.004,-2.873l-2.873,0.004l-0.003,-2.099l2.873,-0.004Z" style="fill:#5998be;fill-rule:nonzero;"/><path d="M40.41,13.011l-2.098,0.003l-0.002,-1.303l-1.299,0.002l-0.003,-2.099l1.299,-0.002l-0.002,-1.299l2.098,-0.003l0.002,1.299l1.304,-0.001l0.003,2.098l-1.304,0.002l0.002,1.303Z" style="fill:#5998be;fill-rule:nonzero;"/><path d="M31.348,33.252l-2.098,0.003l-0.002,-1.299l-1.299,0.002l-0.003,-2.098l1.299,-0.002l-0.002,-1.299l2.098,-0.003l0.002,1.299l1.299,-0.002l0.003,2.099l-1.299,0.001l0.002,1.299Z" style="fill:#5998be;fill-rule:nonzero;"/></g></svg>