<?xml version="1.0" encoding="UTF-8" standalone="no"?><!DOCTYPE svg PUBLIC "-//W3C//DTD SVG 1.1//EN" "http://www.w3.org/Graphics/SVG/1.1/DTD/svg11.dtd"><svg width="100%" height="100%" viewBox="0 0 100 100" version="1.1" xmlns="http://www.w3.org/2000/svg" xmlns:xlink="http://www.w3.org/1999/xlink" xml:space="preserve" style="fill-rule:evenodd;clip-rule:evenodd;stroke-linejoin:round;stroke-miterlimit:1.41421;"><path id="Shape-150-copy-50" d="M26.96,82c-1.061,0 -1.92,-0.859 -1.92,-1.92l0,-61.44c0,-1.061 0.859,-1.919 1.92,-1.919c1.061,0 1.92,0.858 1.92,1.919l0,61.44c0,1.061 -0.859,1.92 -1.92,1.92Zm46.08,-3.839c-1.061,0 -1.92,-0.858 -1.92,-1.921l0,-53.759c0,-1.061 0.859,-1.92 1.92,-1.92c1.061,0 1.92,0.859 1.92,1.92l0,53.759c0,1.063 -0.859,1.921 -1.92,1.921Zm-57.6,-3.841c-1.061,0 -1.92,-0.858 -1.92,-1.919l0,-46.08c0,-1.061 0.859,-1.921 1.92,-1.921c1.061,0 1.92,0.86 1.92,1.921l0,46.08c0,1.061 -0.859,1.919 -1.92,1.919Zm23.04,-3.84c-1.061,0 -1.92,-0.858 -1.92,-1.92l0,-38.4c0,-1.061 0.859,-1.919 1.92,-1.919c1.061,0 1.92,0.858 1.92,1.919l0,38.4c0,1.062 -0.859,1.92 -1.92,1.92Zm23.04,0c-1.061,0 -1.92,-0.858 -1.92,-1.92l0,-38.4c0,-1.061 0.859,-1.919 1.92,-1.919c1.061,0 1.92,0.858 1.92,1.919l0,38.4c0,1.062 -0.859,1.92 -1.92,1.92Zm23.04,0c-1.061,0 -1.92,-0.858 -1.92,-1.92l0,-38.4c0,-1.061 0.859,-1.919 1.92,-1.919c1.061,0 1.92,0.858 1.92,1.919l0,38.4c0,1.062 -0.859,1.92 -1.92,1.92Zm-80.64,-7.68c-1.061,0 -1.92,-0.858 -1.92,-1.919l0,-23.04c0,-1.061 0.859,-1.921 1.92,-1.921c1.061,0 1.92,0.86 1.92,1.921l0,23.04c0,1.061 -0.859,1.919 -1.92,1.919Zm46.08,0c-1.061,0 -1.92,-0.858 -1.92,-1.919l0,-23.04c0,-1.061 0.859,-1.921 1.92,-1.921c1.061,0 1.92,0.86 1.92,1.921l0,23.04c0,1.061 -0.859,1.919 -1.92,1.919Zm46.08,0c-1.061,0 -1.92,-0.858 -1.92,-1.919l0,-23.04c0,-1.061 0.859,-1.921 1.92,-1.921c1.061,0 1.92,0.86 1.92,1.921l0,23.04c0,1.061 -0.859,1.919 -1.92,1.919Z" style="fill:#5a98be;"/></svg>