<?xml version="1.0" encoding="UTF-8" standalone="no"?><!DOCTYPE svg PUBLIC "-//W3C//DTD SVG 1.1//EN" "http://www.w3.org/Graphics/SVG/1.1/DTD/svg11.dtd"><svg width="100%" height="100%" viewBox="0 0 100 100" version="1.1" xmlns="http://www.w3.org/2000/svg" xmlns:xlink="http://www.w3.org/1999/xlink" xml:space="preserve" style="fill-rule:evenodd;clip-rule:evenodd;stroke-linejoin:round;stroke-miterlimit:1.41421;"><path d="M79.299,91.669c-1.449,0.768 -2.595,1.373 -3.863,1.373c-1.468,0 -3.177,-0.793 -4.985,-1.634c-2.204,-1.026 -4.702,-2.188 -7.438,-2.188c-2.697,0 -5.159,1.132 -7.543,2.227c-1.98,0.91 -3.849,1.769 -5.477,1.769c-1.572,0 -3.41,-0.812 -5.358,-1.675c-2.459,-1.088 -5.247,-2.321 -8.367,-2.321c-3.272,0 -5.847,1.317 -8.119,2.478c-1.592,0.816 -2.967,1.518 -4.142,1.518c-1.04,0 -2.028,-0.592 -3.281,-1.342c-1.588,-0.949 -3.501,-2.073 -6.235,-2.484c-0.098,-0.076 -0.194,-0.149 -0.29,-0.241c-1.442,-1.414 -2.05,-4.375 -1.749,-8.427c6.802,-0.242 29.269,-1.556 49.32,-2.729c12.441,-0.729 24.343,-1.426 29.731,-1.699c-6.071,12.321 -9.002,13.864 -9.132,13.928l0.002,0.004c-1.165,0.444 -2.171,0.967 -3.074,1.443m-58.639,-25.973l18.62,-48.868l0,48.118l-18.62,0.75Zm22.175,-0.892l0,-52.714l42.379,51.006l-42.379,1.708Zm53.363,27.198c-1.751,-1.147 -4.145,-2.695 -8.103,-2.77c1.988,-2.704 4.603,-7.059 7.906,-14.081l1.189,-2.536l-2.8,0c-1.527,0 -13.468,0.696 -32.826,1.828c-6.039,0.354 -12.499,0.732 -18.729,1.092l0,-7.174l49.712,-2.003l-52.067,-62.666l-25.065,65.773l23.865,-0.962l0,7.236c-14.012,0.804 -26.133,1.467 -28.444,1.467l-1.575,0l-0.19,1.564c-0.55,4.542 -0.196,8.1 1.034,10.635c-2.624,0.421 -4.354,1.528 -5.79,2.467c-1.314,0.859 -2.108,1.344 -3.166,1.344l0,3.556c2.167,0 3.664,-0.978 5.111,-1.922c1.632,-1.067 3.175,-2.075 6.073,-2.075c0.316,0 0.615,0.018 0.906,0.043c1.284,0.704 2.516,0.843 3.241,0.843c0.027,0 0.041,-0.002 0.066,-0.002c0.848,0.373 1.607,0.821 2.352,1.266c1.52,0.908 3.09,1.847 5.109,1.847c2.03,0 3.844,-0.927 5.762,-1.908c2.007,-1.027 4.083,-2.089 6.499,-2.089c2.37,0 4.688,1.026 6.928,2.018c2.199,0.972 4.473,1.979 6.797,1.979c2.407,0 4.723,-1.065 6.963,-2.095c2.128,-0.977 4.139,-1.902 6.057,-1.902c1.95,0 3.977,0.944 5.94,1.856c2.08,0.967 4.229,1.966 6.483,1.966c2.151,0 3.867,-0.906 5.527,-1.784c1.893,-1.001 3.851,-2.038 6.855,-2.038c3.07,0 4.779,1.12 6.432,2.203c1.348,0.882 2.741,1.794 4.585,1.794l0,-3.556c-0.747,0 -1.453,-0.437 -2.637,-1.214" style="fill:#5998be;fill-rule:nonzero;"/></svg>