<?xml version="1.0" encoding="UTF-8" standalone="no"?><!DOCTYPE svg PUBLIC "-//W3C//DTD SVG 1.1//EN" "http://www.w3.org/Graphics/SVG/1.1/DTD/svg11.dtd"><svg width="100%" height="100%" viewBox="0 0 100 100" version="1.1" xmlns="http://www.w3.org/2000/svg" xmlns:xlink="http://www.w3.org/1999/xlink" xml:space="preserve" style="fill-rule:evenodd;clip-rule:evenodd;stroke-linejoin:round;stroke-miterlimit:1.41421;"><path id="road" d="M58.663,97.897l-2.102,-2.748c0.357,-0.273 35.587,-27.464 33.586,-46.571c-0.568,-5.419 -4.095,-9.602 -10.783,-12.785c-12.884,-6.139 -18.962,-12.092 -18.587,-18.21c0.506,-8.227 13.058,-12.504 13.592,-12.68l1.096,3.279c-3.025,1.015 -10.936,4.719 -11.234,9.618c-0.187,3.082 2.545,8.163 16.62,14.867c7.76,3.694 12.045,8.927 12.738,15.554c2.198,21.026 -33.408,48.517 -34.926,49.676Zm-18.355,-10.027c-0.473,0 -0.944,-0.192 -1.286,-0.571c-0.638,-0.709 -0.581,-1.806 0.129,-2.444l17.304,-15.574c0.711,-0.641 1.803,-0.585 2.443,0.129c0.639,0.709 0.581,1.803 -0.128,2.444l-17.304,15.572c-0.332,0.298 -0.745,0.444 -1.158,0.444Zm-33.834,-1.912l-1.548,-3.096c0.173,-0.086 17.495,-8.825 43.01,-27.534c8.306,-6.088 12.316,-10.338 12.258,-12.988c-0.045,-2.099 -2.925,-4.023 -6.57,-6.46c-3.369,-2.251 -7.562,-5.056 -11.158,-9.165c-3.123,-3.568 -4.162,-7.119 -3.089,-10.544c2.738,-8.746 18.86,-12.865 19.547,-13.038l0.839,3.357c-4.145,1.04 -15.294,4.993 -17.084,10.715c-0.698,2.231 0.084,4.595 2.393,7.233c3.293,3.763 7.109,6.315 10.477,8.568c4.481,2.996 8.02,5.36 8.104,9.26c0.09,4.074 -3.871,8.669 -13.669,15.852c-25.777,18.905 -43.336,27.752 -43.51,27.84Z" style="fill:#5a98be;stroke:#5a98be;stroke-width:1px;"/></svg>