<?xml version="1.0" encoding="UTF-8" standalone="no"?><!DOCTYPE svg PUBLIC "-//W3C//DTD SVG 1.1//EN" "http://www.w3.org/Graphics/SVG/1.1/DTD/svg11.dtd"><svg width="100%" height="100%" viewBox="0 0 100 100" version="1.1" xmlns="http://www.w3.org/2000/svg" xmlns:xlink="http://www.w3.org/1999/xlink" xml:space="preserve" style="fill-rule:evenodd;clip-rule:evenodd;stroke-linejoin:round;stroke-miterlimit:1.41421;"><g id="Retinaicon"><g id="flake"><path d="M49.878,43.772c-0.88,0 -1.591,-0.713 -1.591,-1.591l0,-38.197c0,-0.878 0.711,-1.591 1.591,-1.591c0.88,0 1.592,0.713 1.592,1.591l0,38.197c0,0.878 -0.712,1.591 -1.592,1.591" style="fill:#5998be;fill-rule:nonzero;stroke:#5998be;stroke-width:0.57px;"/><path d="M49.88,26.266c-0.486,0 -0.961,-0.22 -1.275,-0.637c-0.528,-0.704 -0.385,-1.701 0.318,-2.228l12.733,-9.549c0.701,-0.529 1.701,-0.386 2.228,0.318c0.528,0.703 0.385,1.701 -0.319,2.228l-12.732,9.549c-0.286,0.215 -0.621,0.319 -0.953,0.319" style="fill:#5998be;fill-rule:nonzero;stroke:#5998be;stroke-width:0.57px;"/><path d="M49.877,26.266c-0.333,0 -0.667,-0.104 -0.954,-0.319l-12.732,-9.549c-0.703,-0.527 -0.847,-1.525 -0.318,-2.228c0.528,-0.704 1.524,-0.845 2.228,-0.318l12.732,9.549c0.704,0.527 0.847,1.524 0.318,2.228c-0.313,0.417 -0.789,0.637 -1.274,0.637" style="fill:#5998be;fill-rule:nonzero;stroke:#5998be;stroke-width:0.57px;"/><path d="M49.88,13.533c-0.486,0 -0.961,-0.219 -1.275,-0.636c-0.528,-0.704 -0.385,-1.702 0.318,-2.228l6.366,-4.775c0.702,-0.528 1.702,-0.385 2.229,0.318c0.528,0.704 0.385,1.702 -0.319,2.228l-6.366,4.775c-0.286,0.215 -0.621,0.318 -0.953,0.318" style="fill:#5998be;fill-rule:nonzero;stroke:#5998be;stroke-width:0.57px;"/><path d="M49.877,13.533c-0.333,0 -0.667,-0.103 -0.954,-0.318l-6.366,-4.775c-0.703,-0.526 -0.846,-1.524 -0.318,-2.228c0.527,-0.703 1.526,-0.845 2.228,-0.318l6.366,4.775c0.704,0.526 0.847,1.524 0.318,2.228c-0.313,0.417 -0.789,0.636 -1.274,0.636" style="fill:#5998be;fill-rule:nonzero;stroke:#5998be;stroke-width:0.57px;"/><path d="M37.148,86.744c-0.486,0 -0.962,-0.22 -1.275,-0.637c-0.529,-0.703 -0.385,-1.701 0.318,-2.228l12.732,-9.549c0.702,-0.529 1.702,-0.385 2.228,0.318c0.529,0.703 0.386,1.701 -0.318,2.228l-12.732,9.549c-0.287,0.215 -0.621,0.319 -0.953,0.319" style="fill:#5998be;fill-rule:nonzero;stroke:#5998be;stroke-width:0.57px;"/><path d="M62.609,86.744c-0.333,0 -0.667,-0.104 -0.953,-0.319l-12.733,-9.549c-0.703,-0.527 -0.846,-1.525 -0.318,-2.228c0.527,-0.703 1.526,-0.845 2.228,-0.318l12.732,9.549c0.704,0.527 0.847,1.525 0.319,2.228c-0.314,0.417 -0.79,0.637 -1.275,0.637" style="fill:#5998be;fill-rule:nonzero;stroke:#5998be;stroke-width:0.57px;"/><path d="M43.514,94.701c-0.486,0 -0.962,-0.219 -1.275,-0.636c-0.528,-0.704 -0.385,-1.702 0.318,-2.228l6.366,-4.775c0.702,-0.528 1.702,-0.385 2.228,0.318c0.529,0.704 0.386,1.702 -0.318,2.228l-6.366,4.775c-0.286,0.215 -0.621,0.318 -0.953,0.318" style="fill:#5998be;fill-rule:nonzero;stroke:#5998be;stroke-width:0.57px;"/><path d="M56.243,94.701c-0.333,0 -0.667,-0.103 -0.954,-0.318l-6.366,-4.775c-0.703,-0.526 -0.846,-1.524 -0.318,-2.228c0.527,-0.703 1.526,-0.846 2.228,-0.318l6.366,4.775c0.704,0.526 0.847,1.524 0.319,2.228c-0.314,0.417 -0.79,0.636 -1.275,0.636" style="fill:#5998be;fill-rule:nonzero;stroke:#5998be;stroke-width:0.57px;"/><path d="M9.936,74.855c-0.552,0 -1.088,-0.286 -1.381,-0.799c-0.44,-0.763 -0.175,-1.736 0.587,-2.174l31.987,-18.35c0.763,-0.436 1.734,-0.173 2.172,0.589c0.438,0.762 0.173,1.735 -0.587,2.172l-31.987,18.351c-0.25,0.143 -0.522,0.211 -0.791,0.211" style="fill:#5998be;fill-rule:nonzero;stroke:#5998be;stroke-width:0.57px;"/><path d="M84.539,46.794c-0.208,0 -0.42,-0.041 -0.624,-0.127l-14.642,-6.234c-0.808,-0.345 -1.186,-1.28 -0.84,-2.088c0.345,-0.81 1.278,-1.186 2.086,-0.842l14.644,6.236c0.807,0.343 1.186,1.278 0.84,2.086c-0.258,0.607 -0.845,0.969 -1.464,0.969" style="fill:#5998be;fill-rule:nonzero;stroke:#5998be;stroke-width:0.57px;"/><path d="M69.898,40.56c-0.062,0 -0.125,-0.003 -0.189,-0.011c-0.874,-0.105 -1.498,-0.896 -1.393,-1.77l1.883,-15.802c0.105,-0.873 0.888,-1.498 1.77,-1.393c0.874,0.105 1.496,0.896 1.392,1.77l-1.884,15.802c-0.095,0.808 -0.783,1.404 -1.579,1.404" style="fill:#5998be;fill-rule:nonzero;stroke:#5998be;stroke-width:0.57px;"/><path d="M90.257,35.71c-0.208,0 -0.42,-0.042 -0.624,-0.128l-7.321,-3.117c-0.808,-0.344 -1.186,-1.278 -0.842,-2.089c0.346,-0.808 1.278,-1.184 2.088,-0.84l7.323,3.118c0.807,0.344 1.186,1.278 0.84,2.086c-0.258,0.607 -0.845,0.97 -1.464,0.97" style="fill:#5998be;fill-rule:nonzero;stroke:#5998be;stroke-width:0.57px;"/><path d="M82.937,32.592c-0.062,0 -0.126,-0.003 -0.19,-0.011c-0.873,-0.105 -1.497,-0.896 -1.392,-1.77l0.942,-7.9c0.103,-0.872 0.886,-1.499 1.768,-1.393c0.874,0.104 1.496,0.896 1.393,1.769l-0.943,7.901c-0.095,0.809 -0.783,1.404 -1.578,1.404" style="fill:#5998be;fill-rule:nonzero;stroke:#5998be;stroke-width:0.57px;"/><path d="M29.86,62.901c-0.209,0 -0.42,-0.042 -0.624,-0.128l-14.642,-6.234c-0.809,-0.345 -1.186,-1.279 -0.84,-2.088c0.345,-0.81 1.281,-1.185 2.086,-0.842l14.644,6.236c0.807,0.344 1.185,1.278 0.84,2.087c-0.258,0.606 -0.845,0.969 -1.464,0.969" style="fill:#5998be;fill-rule:nonzero;stroke:#5998be;stroke-width:0.57px;"/><path d="M27.978,78.704c-0.062,0 -0.126,-0.003 -0.19,-0.011c-0.873,-0.105 -1.497,-0.896 -1.392,-1.77l1.883,-15.802c0.105,-0.872 0.888,-1.5 1.769,-1.393c0.874,0.105 1.496,0.896 1.393,1.77l-1.884,15.802c-0.096,0.809 -0.784,1.404 -1.579,1.404" style="fill:#5998be;fill-rule:nonzero;stroke:#5998be;stroke-width:0.57px;"/><path d="M16.821,70.868c-0.208,0 -0.42,-0.041 -0.623,-0.127l-7.321,-3.118c-0.809,-0.344 -1.186,-1.278 -0.842,-2.088c0.345,-0.808 1.279,-1.184 2.088,-0.84l7.322,3.118c0.807,0.343 1.186,1.278 0.841,2.086c-0.258,0.606 -0.845,0.969 -1.465,0.969" style="fill:#5998be;fill-rule:nonzero;stroke:#5998be;stroke-width:0.57px;"/><path d="M15.881,78.77c-0.062,0 -0.126,-0.003 -0.189,-0.011c-0.874,-0.105 -1.498,-0.896 -1.393,-1.77l0.942,-7.9c0.104,-0.872 0.884,-1.5 1.769,-1.393c0.873,0.104 1.496,0.896 1.392,1.768l-0.942,7.902c-0.096,0.809 -0.783,1.404 -1.579,1.404" style="fill:#5998be;fill-rule:nonzero;stroke:#5998be;stroke-width:0.57px;"/><path d="M41.919,46.956c-0.269,0 -0.541,-0.069 -0.791,-0.212l-31.987,-18.35c-0.76,-0.438 -1.024,-1.41 -0.587,-2.173c0.436,-0.762 1.409,-1.025 2.173,-0.589l31.986,18.351c0.763,0.437 1.027,1.41 0.587,2.174c-0.292,0.512 -0.829,0.799 -1.381,0.799" style="fill:#5998be;fill-rule:nonzero;stroke:#5998be;stroke-width:0.57px;"/><path d="M13.626,45.203c-0.619,0 -1.206,-0.363 -1.464,-0.969c-0.346,-0.809 0.033,-1.743 0.84,-2.087l14.644,-6.236c0.808,-0.343 1.741,0.032 2.086,0.842c0.346,0.809 -0.032,1.743 -0.84,2.089l-14.642,6.234c-0.204,0.085 -0.416,0.127 -0.624,0.127" style="fill:#5998be;fill-rule:nonzero;stroke:#5998be;stroke-width:0.57px;"/><path d="M28.267,38.968c-0.796,0 -1.484,-0.595 -1.579,-1.404l-1.884,-15.802c-0.104,-0.874 0.518,-1.665 1.392,-1.77c0.875,-0.106 1.665,0.521 1.77,1.393l1.883,15.802c0.105,0.874 -0.519,1.665 -1.393,1.77c-0.064,0.008 -0.127,0.011 -0.189,0.011" style="fill:#5998be;fill-rule:nonzero;stroke:#5998be;stroke-width:0.57px;"/><path d="M9.499,35.71c-0.619,0 -1.206,-0.363 -1.464,-0.97c-0.345,-0.808 0.034,-1.742 0.841,-2.086l7.322,-3.118c0.807,-0.344 1.743,0.032 2.088,0.84c0.344,0.811 -0.033,1.745 -0.842,2.089l-7.321,3.117c-0.203,0.086 -0.415,0.128 -0.624,0.128" style="fill:#5998be;fill-rule:nonzero;stroke:#5998be;stroke-width:0.57px;"/><path d="M16.82,32.592c-0.796,0 -1.483,-0.595 -1.579,-1.404l-0.942,-7.901c-0.104,-0.873 0.519,-1.665 1.392,-1.769c0.882,-0.108 1.665,0.521 1.769,1.393l0.942,7.9c0.105,0.874 -0.519,1.665 -1.393,1.77c-0.063,0.008 -0.127,0.011 -0.189,0.011" style="fill:#5998be;fill-rule:nonzero;stroke:#5998be;stroke-width:0.57px;"/><path d="M71.488,64.492c-0.619,0 -1.206,-0.363 -1.464,-0.969c-0.345,-0.808 0.033,-1.743 0.84,-2.086l14.644,-6.236c0.807,-0.344 1.741,0.032 2.086,0.842c0.346,0.808 -0.031,1.743 -0.84,2.088l-14.642,6.234c-0.204,0.086 -0.415,0.127 -0.624,0.127" style="fill:#5998be;fill-rule:nonzero;stroke:#5998be;stroke-width:0.57px;"/><path d="M73.37,80.295c-0.795,0 -1.483,-0.595 -1.578,-1.403l-1.885,-15.803c-0.103,-0.873 0.519,-1.664 1.393,-1.769c0.878,-0.109 1.664,0.52 1.77,1.392l1.882,15.802c0.105,0.874 -0.519,1.665 -1.392,1.77c-0.064,0.008 -0.128,0.011 -0.19,0.011" style="fill:#5998be;fill-rule:nonzero;stroke:#5998be;stroke-width:0.57px;"/><path d="M82.935,70.868c-0.619,0 -1.206,-0.363 -1.464,-0.969c-0.345,-0.808 0.033,-1.743 0.84,-2.086l7.323,-3.118c0.81,-0.344 1.743,0.032 2.088,0.84c0.344,0.81 -0.033,1.744 -0.842,2.088l-7.321,3.118c-0.204,0.086 -0.415,0.127 -0.624,0.127" style="fill:#5998be;fill-rule:nonzero;stroke:#5998be;stroke-width:0.57px;"/><path d="M83.875,78.77c-0.795,0 -1.483,-0.595 -1.578,-1.404l-0.943,-7.902c-0.103,-0.872 0.519,-1.664 1.393,-1.768c0.874,-0.107 1.665,0.521 1.768,1.393l0.942,7.9c0.105,0.874 -0.518,1.665 -1.392,1.77c-0.064,0.008 -0.128,0.011 -0.19,0.011" style="fill:#5998be;fill-rule:nonzero;stroke:#5998be;stroke-width:0.57px;"/><path d="M57.837,46.956c-0.552,0 -1.088,-0.287 -1.381,-0.799c-0.439,-0.764 -0.175,-1.737 0.587,-2.174l31.987,-18.351c0.762,-0.436 1.733,-0.173 2.172,0.589c0.438,0.763 0.174,1.735 -0.587,2.173l-31.987,18.35c-0.249,0.143 -0.522,0.212 -0.791,0.212" style="fill:#5998be;fill-rule:nonzero;stroke:#5998be;stroke-width:0.57px;"/><path d="M89.82,74.856c-0.257,0 -0.518,-0.064 -0.762,-0.196l-33.576,-18.351c-0.772,-0.421 -1.056,-1.387 -0.635,-2.159c0.421,-0.772 1.389,-1.054 2.161,-0.634l33.576,18.351c0.772,0.421 1.057,1.389 0.635,2.159c-0.289,0.53 -0.835,0.83 -1.399,0.83" style="fill:#5998be;fill-rule:nonzero;stroke:#5998be;stroke-width:0.57px;"/><path d="M49.878,97.884c-0.88,0 -1.591,-0.713 -1.591,-1.591l0,-38.197c0,-0.878 0.711,-1.591 1.591,-1.591c0.88,0 1.592,0.713 1.592,1.591l0,38.197c0,0.878 -0.712,1.591 -1.592,1.591" style="fill:#5998be;fill-rule:nonzero;stroke:#5998be;stroke-width:0.57px;"/><path d="M49.878,43.772c-3.511,0 -6.366,2.856 -6.366,6.366c0,3.511 2.855,6.367 6.366,6.367c3.511,0 6.366,-2.856 6.366,-6.367c0,-3.51 -2.855,-6.366 -6.366,-6.366m0,15.916c-5.266,0 -9.549,-4.285 -9.549,-9.55c0,-5.264 4.283,-9.549 9.549,-9.549c5.267,0 9.549,4.285 9.549,9.549c0,5.265 -4.282,9.55 -9.549,9.55" style="fill:#5998be;fill-rule:nonzero;stroke:#5998be;stroke-width:0.57px;"/></g></g></svg>