<?xml version="1.0" encoding="UTF-8" standalone="no"?><!DOCTYPE svg PUBLIC "-//W3C//DTD SVG 1.1//EN" "http://www.w3.org/Graphics/SVG/1.1/DTD/svg11.dtd"><svg width="100%" height="100%" viewBox="0 0 100 100" version="1.1" xmlns="http://www.w3.org/2000/svg" xmlns:xlink="http://www.w3.org/1999/xlink" xml:space="preserve" style="fill-rule:evenodd;clip-rule:evenodd;stroke-linejoin:round;stroke-miterlimit:1.41421;"><path id="thunder" d="M28.955,96.488c1.189,0 2.096,-0.931 2.828,-1.838l49.553,-61.724c1.64,-2.044 1.142,-3.7 0.853,-4.32c-0.29,-0.617 -1.245,-2.055 -3.842,-2.055l-20.665,0c-0.394,0 -0.697,-0.108 -0.829,-0.289c-0.131,-0.187 -0.136,-0.51 -0.013,-0.89l5.325,-16.424c0.523,-1.618 0.316,-3.251 -0.57,-4.487c-0.882,-1.24 -2.35,-1.949 -4.027,-1.949l-20.665,0c-2.996,0 -6.135,2.24 -7.147,5.098l-12.916,36.527c-0.57,1.614 -0.4,3.251 0.463,4.495c0.864,1.243 2.329,1.956 4.016,1.956l18.067,0c0.394,0 0.695,0.105 0.826,0.29c0.132,0.183 0.135,0.506 0.012,0.886l-13.108,40.292c-0.378,1.165 -0.666,2.49 0.066,3.515l0.592,0.83l1.181,0.087Zm49.187,-65.931l-45.155,56.243l10.99,-33.782c0.525,-1.617 0.321,-3.253 -0.563,-4.49c-0.882,-1.236 -2.351,-1.946 -4.028,-1.946l-18.067,0c-0.372,0 -0.674,-0.099 -0.784,-0.258c-0.11,-0.159 -0.1,-0.479 0.026,-0.832l12.916,-36.528c0.452,-1.279 2.084,-2.446 3.426,-2.446l20.665,0c0.393,0 0.696,0.106 0.828,0.29c0.131,0.186 0.137,0.508 0.013,0.891l-5.324,16.422c-0.523,1.617 -0.317,3.253 0.569,4.491c0.884,1.233 2.351,1.945 4.028,1.945l20.46,0Z" style="fill:#5a98be;fill-rule:nonzero;"/></svg>