<?xml version="1.0" encoding="UTF-8" standalone="no"?><!DOCTYPE svg PUBLIC "-//W3C//DTD SVG 1.1//EN" "http://www.w3.org/Graphics/SVG/1.1/DTD/svg11.dtd"><svg width="100%" height="100%" viewBox="0 0 100 100" version="1.1" xmlns="http://www.w3.org/2000/svg" xmlns:xlink="http://www.w3.org/1999/xlink" xml:space="preserve" style="fill-rule:evenodd;clip-rule:evenodd;stroke-linecap:round;stroke-linejoin:round;stroke-miterlimit:10;"><g id="Icon54"><g id="train2"><path d="M66.031,19.769l-32.453,0c-2.323,0 -4.245,1.808 -4.39,4.126l-1.377,22.265c0,2.428 9.849,4.399 21.993,4.399c12.149,0 21.993,-1.971 21.993,-4.399l-1.376,-22.265c-0.141,-2.318 -2.068,-4.126 -4.39,-4.126Z" style="fill:none;stroke:#5998be;stroke-width:3.7px;"/><path d="M34.41,63.755c0,2.428 -1.971,4.398 -4.399,4.398c-2.428,0 -4.398,-1.97 -4.398,-4.398c0,-2.428 1.97,-4.399 4.398,-4.399c2.428,0 4.399,1.971 4.399,4.399Z" style="fill:none;stroke:#5998be;stroke-width:3.7px;"/><path d="M73.997,63.755c0,2.428 -1.97,4.398 -4.398,4.398c-2.428,0 -4.399,-1.97 -4.399,-4.398c0,-2.428 1.971,-4.399 4.399,-4.399c2.428,0 4.398,1.971 4.398,4.399Z" style="fill:none;stroke:#5998be;stroke-width:3.7px;"/><path d="M43.207,63.755l13.196,0" style="fill:none;stroke:#5998be;stroke-width:3.7px;"/><path d="M78.944,14.785c-0.308,-4.623 -4.148,-8.213 -8.78,-8.213l-40.718,0c-4.632,0 -8.471,3.59 -8.779,8.213l-3.849,57.767c0,3.642 14.766,8.797 32.989,8.797c18.219,0 32.99,-5.155 32.99,-8.797l-3.853,-57.767Z" style="fill:none;stroke:#5998be;stroke-width:3.7px;"/><path d="M12.417,94.545l13.196,-15.395" style="fill:none;stroke:#5998be;stroke-width:3.7px;"/><path d="M87.193,94.545l-13.196,-15.395" style="fill:none;stroke:#5998be;stroke-width:3.7px;"/><path d="M16.816,90.146l65.979,0" style="fill:none;stroke:#5998be;stroke-width:3.7px;"/><path d="M25.613,81.349l48.384,0" style="fill:none;stroke:#5998be;stroke-width:3.7px;"/></g></g></svg>