<?xml version="1.0" encoding="UTF-8" standalone="no"?><!DOCTYPE svg PUBLIC "-//W3C//DTD SVG 1.1//EN" "http://www.w3.org/Graphics/SVG/1.1/DTD/svg11.dtd"><svg width="100%" height="100%" viewBox="0 0 100 100" version="1.1" xmlns="http://www.w3.org/2000/svg" xmlns:xlink="http://www.w3.org/1999/xlink" xml:space="preserve" style="fill-rule:evenodd;clip-rule:evenodd;stroke-linejoin:round;stroke-miterlimit:1.41421;"><path id="Shape-99" d="M49.989,15.839l6.606,-7.115c0.756,-0.819 2.039,-0.865 2.856,-0.105c0.818,0.759 0.865,2.038 0.105,2.857l-6.809,7.334l43.196,46.528l0.034,0.04l0.046,0.051l0.03,0.04l0.023,0.028l0.026,0.037l0.037,0.051l0.029,0.047l0.023,0.033l0.019,0.036l0.031,0.05l0.026,0.055l0.019,0.035l0.015,0.035l0.025,0.052l0.021,0.059l0.016,0.037l0.01,0.035l0.021,0.055l0.015,0.06l0.011,0.037l0.008,0.038l0.015,0.059l0.009,0.057l0.008,0.037l0.004,0.044l0.01,0.062l0.002,0.05l0.004,0.038l0.001,0.053l0.003,0.066l0,24.264c0,1.114 -0.902,2.019 -2.021,2.021l-88.948,0c-1.117,0 -2.021,-0.906 -2.021,-2.021l0,-24.264l0.003,-0.062l0.001,-0.057l0.004,-0.041l0.002,-0.047l0.009,-0.058l0.005,-0.048l0.009,-0.041l0.008,-0.053l0.014,-0.056l0.009,-0.041l0.012,-0.041l0.015,-0.056l0.019,-0.052l0.012,-0.038l0.016,-0.041l0.021,-0.055l0.023,-0.049l0.016,-0.038l0.021,-0.039l0.025,-0.051l0.029,-0.047l0.021,-0.039l0.024,-0.035l0.027,-0.045l0.036,-0.048l0.027,-0.04l0.025,-0.03l0.028,-0.038l0.044,-0.048l0.036,-0.043l43.196,-46.528l-6.809,-7.334c-0.76,-0.819 -0.712,-2.098 0.105,-2.857c0.817,-0.76 2.099,-0.714 2.857,0.105l6.605,7.115Zm-2.021,73.118l0,-64.998l-40.431,43.55l0,21.448l40.431,0Zm4.043,-64.998l0,27.505l30.8,36.611c0.222,0.263 0.365,0.567 0.431,0.882l9.199,0l0,-21.447l-40.43,-43.551Zm0,64.998l26.257,0l-26.257,-31.211l0,31.211Z" style="fill:#5a98be;"/></svg>