<?xml version="1.0" encoding="UTF-8" standalone="no"?><!DOCTYPE svg PUBLIC "-//W3C//DTD SVG 1.1//EN" "http://www.w3.org/Graphics/SVG/1.1/DTD/svg11.dtd"><svg width="100%" height="100%" viewBox="0 0 100 100" version="1.1" xmlns="http://www.w3.org/2000/svg" xmlns:xlink="http://www.w3.org/1999/xlink" xml:space="preserve" style="fill-rule:evenodd;clip-rule:evenodd;stroke-linejoin:round;stroke-miterlimit:1.41421;"><path id="Wind" d="M51.608,61.048c10.551,0.008 17.62,5.589 17.619,13.887c0,10.114 -7.318,13.882 -11.93,13.882c-6.036,0 -12.172,-3.699 -12.216,-10.768c-0.007,-1.173 0.942,-2.132 2.146,-2.153l0.013,0c1.199,0.012 2.154,0.956 2.16,2.128c0.033,5.144 4.979,6.517 7.897,6.517c2.117,0 7.611,-1.725 7.611,-9.604c0,-7.083 -7.144,-9.604 -13.3,-9.611l-31.494,0c-1.203,-0.012 -2.159,-0.965 -2.159,-2.14c0,-1.172 0.956,-2.127 2.159,-2.138l31.494,0Zm23.405,-19.126l-0.014,0c-1.192,-0.009 -2.152,-0.97 -2.145,-2.154c0.044,-7.069 6.18,-10.765 12.216,-10.765c4.612,0 11.93,3.765 11.93,13.882c0.001,8.296 -7.068,13.877 -17.619,13.886l-52.857,0c-1.192,0 -2.16,-0.959 -2.16,-2.138c0,-1.183 0.968,-2.14 2.16,-2.14l52.857,0c6.136,0 13.3,-2.519 13.3,-9.609c0,-7.881 -5.494,-9.606 -7.611,-9.606c-2.918,0 -7.864,1.374 -7.897,6.519c-0.007,1.17 -0.961,2.114 -2.16,2.125Zm-27.773,-8.545l-0.013,0c-1.193,-0.008 -2.153,-0.973 -2.146,-2.153c0.044,-7.071 6.18,-10.768 12.216,-10.768c4.612,0 11.93,3.768 11.93,13.884c0.001,8.297 -7.068,13.878 -17.619,13.887l-18.675,0c-1.192,0 -2.16,-0.961 -2.16,-2.142c0,-1.18 0.968,-2.14 2.16,-2.14l18.675,0c6.136,0 13.3,-2.514 13.3,-9.605c0,-7.883 -5.494,-9.608 -7.611,-9.608c-2.918,0 -7.864,1.373 -7.897,6.517c-0.006,1.172 -0.961,2.116 -2.16,2.128Zm-32.045,-8.546l-0.014,0c-1.193,-0.007 -2.152,-0.972 -2.146,-2.153c0.044,-7.069 6.181,-10.768 12.217,-10.768c4.611,0 11.929,3.769 11.929,13.884c0.001,8.298 -7.067,13.875 -17.618,13.884l-14.403,0c-1.192,0 -2.16,-0.956 -2.16,-2.138c0,-1.179 0.968,-2.14 2.16,-2.14l14.403,0c6.136,0 13.299,-2.515 13.299,-9.61c0,-7.876 -5.494,-9.602 -7.61,-9.602c-2.918,0 -7.865,1.371 -7.898,6.514c-0.006,1.172 -0.961,2.118 -2.159,2.129Z" style="fill:#5a98be;"/></svg>